<svg width="102" height="102" viewBox="0 0 102 102" fill="none" xmlns="http://www.w3.org/2000/svg">
<mask id="mask0_8010_22367" style="mask-type:luminance" maskUnits="userSpaceOnUse" x="0" y="0" width="102" height="102">
<path d="M102 51C102 79.1666 79.1666 102 51 102C22.8334 102 0 79.1666 0 51C0 22.8334 22.8334 0 51 0C79.1666 0 102 22.8334 102 51Z" fill="white"/>
</mask>
<g mask="url(#mask0_8010_22367)">
<path d="M70.2977 51.2369C69.9815 51.5531 69.9815 52.0657 70.2977 52.3819L75.4495 57.5336C75.7655 57.8498 76.2781 57.8498 76.5943 57.5336C76.9103 57.2175 76.9103 56.7049 76.5943 56.3887L72.0148 51.8094L76.5943 47.2301C76.9103 46.9139 76.9103 46.4013 76.5943 46.0853C76.2781 45.7691 75.7655 45.7691 75.4495 46.0853L70.2977 51.2369ZM31.7022 52.3819C32.0184 52.0657 32.0184 51.5531 31.7022 51.2369L26.5503 46.0853C26.2343 45.7691 25.7217 45.7691 25.4055 46.0853C25.0895 46.4013 25.0895 46.9139 25.4055 47.2301L29.985 51.8094L25.4055 56.3887C25.0895 56.7049 25.0895 57.2175 25.4055 57.5336C25.7217 57.8498 26.2343 57.8498 26.5503 57.5336L31.7022 52.3819ZM33.7308 21.4351L34.0781 22.0721L35.4996 21.2969L35.1522 20.6599L33.7308 21.4351ZM34.0781 22.0721C44.0603 40.376 43.9315 62.3653 33.7354 80.5564L35.1477 81.3481C45.6161 62.6711 45.7485 40.0901 35.4996 21.2969L34.0781 22.0721ZM66.8499 20.6559C56.3826 39.59 56.3826 62.4098 66.8499 81.3439L68.2669 80.5606C58.069 62.114 58.069 39.8858 68.2669 21.4392L66.8499 20.6559ZM50.1904 21.0475V80.9523H51.8094V21.0475H50.1904ZM87.4285 50.9999H70.87V52.619H87.4285V50.9999ZM14.5713 52.619H31.1298V50.9999H14.5713V52.619ZM100.381 50.9999C100.381 78.2723 78.2723 100.381 50.9999 100.381V103.619C80.0607 103.619 103.619 80.0607 103.619 50.9999H100.381ZM50.9999 100.381C23.7275 100.381 1.61895 78.2723 1.61895 50.9999H-1.61914C-1.61914 80.0607 21.9391 103.619 50.9999 103.619V100.381ZM1.61895 50.9999C1.61895 23.7275 23.7275 1.61895 50.9999 1.61895V-1.61914C21.9391 -1.61914 -1.61914 21.9391 -1.61914 50.9999H1.61895ZM50.9999 1.61895C78.2723 1.61895 100.381 23.7275 100.381 50.9999H103.619C103.619 21.9391 80.0607 -1.61914 50.9999 -1.61914V1.61895Z" fill="black"/>
</g>
</svg>
