<svg width="103" height="102" viewBox="0 0 103 102" fill="none" xmlns="http://www.w3.org/2000/svg">
<path d="M42.3442 31.5948C43.6918 31.5948 44.7841 30.5024 44.7841 29.1549C44.7841 27.8073 43.6918 26.7149 42.3442 26.7149C40.9967 26.7149 39.9043 27.8073 39.9043 29.1549C39.9043 30.5024 40.9967 31.5948 42.3442 31.5948ZM29.4038 62.3452C30.7514 62.3452 31.8437 61.2528 31.8437 59.9053C31.8437 58.5577 30.7514 57.4653 29.4038 57.4653C28.0563 57.4653 26.9639 58.5577 26.9639 59.9053C26.9639 61.2528 28.0563 62.3452 29.4038 62.3452ZM40.7377 52.631C42.0853 52.631 43.1776 51.5386 43.1776 50.1911C43.1776 48.8436 42.0853 47.7511 40.7377 47.7511C39.3902 47.7511 38.2978 48.8436 38.2978 50.1911C38.2978 51.5386 39.3902 52.631 40.7377 52.631ZM63.3806 52.631C64.7281 52.631 65.8205 51.5386 65.8205 50.1911C65.8205 48.8436 64.7281 47.7511 63.3806 47.7511C62.033 47.7511 60.9407 48.8436 60.9407 50.1911C60.9407 51.5386 62.033 52.631 63.3806 52.631ZM29.4038 42.9161C30.7514 42.9161 31.8437 41.8236 31.8437 40.4761C31.8437 39.1286 30.7514 38.0361 29.4038 38.0361C28.0563 38.0361 26.9639 39.1286 26.9639 40.4761C26.9639 41.8236 28.0563 42.9161 29.4038 42.9161ZM61.7725 31.5948C63.12 31.5948 64.2124 30.5024 64.2124 29.1549C64.2124 27.8073 63.12 26.7149 61.7725 26.7149C60.4249 26.7149 59.3326 27.8073 59.3326 29.1549C59.3326 30.5024 60.4249 31.5948 61.7725 31.5948ZM42.3442 75.2863C43.6918 75.2863 44.7841 74.1939 44.7841 72.8464C44.7841 71.4988 43.6918 70.4064 42.3442 70.4064C40.9967 70.4064 39.9043 71.4988 39.9043 72.8464C39.9043 74.1939 40.9967 75.2863 42.3442 75.2863ZM52.0588 42.9286C53.4063 42.9286 54.4986 41.8361 54.4986 40.4886C54.4986 39.1411 53.4063 38.0486 52.0588 38.0486C50.7112 38.0486 49.6189 39.1411 49.6189 40.4886C49.6189 41.8361 50.7112 42.9286 52.0588 42.9286ZM61.7725 75.2863C63.12 75.2863 64.2124 74.1939 64.2124 72.8464C64.2124 71.4988 63.12 70.4064 61.7725 70.4064C60.4249 70.4064 59.3326 71.4988 59.3326 72.8464C59.3326 74.1939 60.4249 75.2863 61.7725 75.2863ZM74.7145 42.9161C76.062 42.9161 77.1544 41.8236 77.1544 40.4761C77.1544 39.1286 76.062 38.0361 74.7145 38.0361C73.3669 38.0361 72.2746 39.1286 72.2746 40.4761C72.2746 41.8236 73.3669 42.9161 74.7145 42.9161ZM74.7145 62.3452C76.062 62.3452 77.1544 61.2528 77.1544 59.9053C77.1544 58.5577 76.062 57.4653 74.7145 57.4653C73.3669 57.4653 72.2746 58.5577 72.2746 59.9053C72.2746 61.2528 73.3669 62.3452 74.7145 62.3452ZM52.0588 63.9534C53.4063 63.9534 54.4986 62.8609 54.4986 61.5134C54.4986 60.1659 53.4063 59.0735 52.0588 59.0735C50.7112 59.0735 49.6189 60.1659 49.6189 61.5134C49.6189 62.8609 50.7112 63.9534 52.0588 63.9534Z" stroke="black" stroke-width="1.61905"/>
<circle cx="51.25" cy="51" r="50.1905" stroke="black" stroke-width="1.61905"/>
<path d="M21.2988 34.8096L82.0131 65.5715" stroke="black" stroke-width="1.61905"/>
<path d="M21.2988 65.5715L82.0131 34.8096" stroke="black" stroke-width="1.61905"/>
</svg>
