<svg width="103" height="102" viewBox="0 0 103 102" fill="none" xmlns="http://www.w3.org/2000/svg">
<path d="M12.2363 51.0001C21.7464 58.1271 42.9308 68.1049 51.5882 51.0001C60.2456 33.8953 82.4138 43.8731 90.94 51.0001" stroke="black" stroke-width="1.61905"/>
<path d="M51.0155 38.9802C51.3316 39.2963 51.8442 39.2963 52.1603 38.9802L57.3121 33.8284C57.6282 33.5122 57.6282 32.9997 57.3121 32.6835C56.9959 32.3674 56.4834 32.3674 56.1672 32.6835L51.5879 37.2629L47.0085 32.6835C46.6924 32.3674 46.1798 32.3674 45.8637 32.6835C45.5476 32.9997 45.5476 33.5122 45.8637 33.8284L51.0155 38.9802ZM50.7784 22.667V38.4077H52.3974V22.667H50.7784Z" fill="black"/>
<path d="M52.1603 63.0208C51.8442 62.7047 51.3316 62.7047 51.0155 63.0208L45.8637 68.1726C45.5476 68.4887 45.5476 69.0013 45.8637 69.3174C46.1798 69.6336 46.6924 69.6336 47.0085 69.3174L51.5879 64.7381L56.1672 69.3174C56.4834 69.6336 56.9959 69.6336 57.3121 69.3174C57.6282 69.0013 57.6282 68.4887 57.3121 68.1726L52.1603 63.0208ZM52.3974 79.334V63.5932H50.7784V79.334H52.3974Z" fill="black"/>
<circle cx="51.2734" cy="51" r="50.1905" stroke="black" stroke-width="1.61905"/>
</svg>
