<svg width="102" height="102" viewBox="0 0 102 102" fill="none" xmlns="http://www.w3.org/2000/svg">
<circle cx="51" cy="51" r="50.1905" stroke="black" stroke-width="1.61905"/>
<path d="M72.1855 29.5521L72.8013 30.0776L72.1855 29.5521ZM78.8679 22.6034C78.8326 22.1577 78.4427 21.825 77.997 21.8602L70.734 22.4348C70.2883 22.4701 69.9556 22.86 69.9908 23.3057C70.0261 23.7514 70.416 24.0841 70.8617 24.0489L77.3177 23.5381L77.8285 29.9941C77.8637 30.4398 78.2536 30.7725 78.6993 30.7372C79.145 30.702 79.4777 30.3121 79.4425 29.8664L78.8679 22.6034ZM80.3308 67.8201L81.1198 68.0011L80.3308 67.8201ZM74.5967 51.9897L75.0868 51.3454L74.5967 51.9897ZM72.8013 30.0776L78.6766 23.1927L77.4451 22.1417L71.5698 29.0266L72.8013 30.0776ZM78.8499 77.8959L81.1198 68.0011L79.5418 67.6391L77.2718 77.5338L78.8499 77.8959ZM81.1198 68.0011C82.5548 61.7462 80.1947 55.2304 75.0868 51.3454L74.1067 52.6341C78.7083 56.1341 80.8345 62.0041 79.5418 67.6391L81.1198 68.0011ZM71.5698 29.0266C65.4789 36.1641 66.6383 46.9537 74.1067 52.6341L75.0868 51.3454C68.3586 46.228 67.3141 36.5077 72.8013 30.0776L71.5698 29.0266Z" fill="black"/>
<path d="M51.1367 29.5521L51.7525 30.0776L51.1367 29.5521ZM57.819 22.6034C57.7838 22.1577 57.3939 21.825 56.9482 21.8602L49.6852 22.4348C49.2395 22.4701 48.9067 22.86 48.942 23.3057C48.9773 23.7514 49.3672 24.0841 49.8129 24.0489L56.2689 23.5381L56.7797 29.9941C56.8149 30.4398 57.2048 30.7725 57.6505 30.7372C58.0962 30.702 58.4289 30.3121 58.3937 29.8664L57.819 22.6034ZM59.282 67.8201L60.071 68.0011L59.282 67.8201ZM53.5479 51.9897L54.038 51.3454L53.5479 51.9897ZM51.7525 30.0776L57.6278 23.1927L56.3962 22.1417L50.5209 29.0266L51.7525 30.0776ZM57.8011 77.8959L60.071 68.0011L58.493 67.6391L56.223 77.5338L57.8011 77.8959ZM60.071 68.0011C61.506 61.7462 59.1458 55.2304 54.038 51.3454L53.0578 52.6341C57.6595 56.1341 59.7857 62.0041 58.493 67.6391L60.071 68.0011ZM50.5209 29.0266C44.43 36.1641 45.5895 46.9537 53.0578 52.6341L54.038 51.3454C47.3098 46.228 46.2652 36.5077 51.7525 30.0776L50.5209 29.0266Z" fill="black"/>
<path d="M30.0898 29.5521L30.7056 30.0776L30.0898 29.5521ZM36.7722 22.6034C36.7369 22.1577 36.347 21.825 35.9013 21.8602L28.6383 22.4348C28.1926 22.4701 27.8599 22.86 27.8951 23.3057C27.9304 23.7514 28.3203 24.0841 28.766 24.0489L35.222 23.5381L35.7328 29.9941C35.768 30.4398 36.1579 30.7725 36.6036 30.7372C37.0493 30.702 37.382 30.3121 37.3468 29.8664L36.7722 22.6034ZM38.2351 67.8201L39.0241 68.0011L38.2351 67.8201ZM32.501 51.9897L32.9911 51.3454L32.501 51.9897ZM30.7056 30.0776L36.5809 23.1927L35.3494 22.1417L29.4741 29.0266L30.7056 30.0776ZM36.7542 77.8959L39.0241 68.0011L37.4461 67.6391L35.1761 77.5338L36.7542 77.8959ZM39.0241 68.0011C40.4591 61.7462 38.099 55.2304 32.9911 51.3454L32.011 52.6341C36.6126 56.1341 38.7388 62.0041 37.4461 67.6391L39.0241 68.0011ZM29.4741 29.0266C23.3832 36.1641 24.5426 46.9537 32.011 52.6341L32.9911 51.3454C26.2629 46.228 25.2184 36.5077 30.7056 30.0776L29.4741 29.0266Z" fill="black"/>
<path d="M16.1895 50.1904H85.8085" stroke="black" stroke-width="1.61905"/>
</svg>
