<svg width="20" height="20" viewBox="0 0 20 20" fill="none" xmlns="http://www.w3.org/2000/svg">
<path d="M10.0051 19.9999C8.02543 20.0018 6.08972 19.4165 4.4429 18.3179C2.79608 17.2193 1.51219 15.6568 0.753712 13.8282C-0.0047639 11.9997 -0.203728 9.98718 0.181999 8.04549C0.567727 6.1038 1.52081 4.32019 2.92062 2.92037C4.32043 1.52056 6.10405 0.567483 8.04574 0.181755C9.98743 -0.203972 11.9999 -0.00500804 13.8285 0.753468C15.657 1.51194 17.2195 2.79583 18.3181 4.44265C19.4167 6.08947 20.0021 8.02519 20.0001 10.0048C19.9949 12.6541 18.9402 15.1933 17.0669 17.0666C15.1936 18.9399 12.6543 19.9946 10.0051 19.9999ZM10.0051 1.48282C8.31915 1.48087 6.67054 1.97901 5.2678 2.91423C3.86507 3.84945 2.77125 5.17972 2.12472 6.73674C1.47819 8.29375 1.30802 10.0076 1.63572 11.6613C1.96343 13.3151 2.77429 14.8345 3.96572 16.0273C5.15715 17.2201 6.6756 18.0327 8.32898 18.3623C9.98235 18.692 11.6963 18.5238 13.2541 17.8791C14.8119 17.2343 16.1434 16.1421 17.0803 14.7404C18.0171 13.3388 18.5172 11.6907 18.5172 10.0048C18.5146 7.74716 17.6172 5.58257 16.0217 3.98523C14.4263 2.3879 12.2627 1.48805 10.0051 1.48282Z" fill="#12131A"/>
<path d="M13.5048 10.7464H6.49538C6.29873 10.7464 6.11013 10.6683 5.97108 10.5292C5.83203 10.3901 5.75391 10.2016 5.75391 10.0049C5.75391 9.80825 5.83203 9.61965 5.97108 9.4806C6.11013 9.34155 6.29873 9.26343 6.49538 9.26343H13.5048C13.7014 9.26343 13.89 9.34155 14.0291 9.4806C14.1681 9.61965 14.2462 9.80825 14.2462 10.0049C14.2462 10.2016 14.1681 10.3901 14.0291 10.5292C13.89 10.6683 13.7014 10.7464 13.5048 10.7464Z" fill="#12131A"/>
<path d="M10.0052 14.2462C9.90747 14.2476 9.81046 14.2293 9.7199 14.1925C9.62934 14.1557 9.54707 14.1012 9.47795 14.032C9.40883 13.9629 9.35426 13.8806 9.31747 13.7901C9.28068 13.6995 9.26241 13.6025 9.26374 13.5048V6.49538C9.26374 6.29873 9.34186 6.11013 9.48091 5.97108C9.61997 5.83203 9.80856 5.75391 10.0052 5.75391C10.2019 5.75391 10.3905 5.83203 10.5295 5.97108C10.6686 6.11013 10.7467 6.29873 10.7467 6.49538V13.5048C10.7467 13.7014 10.6686 13.89 10.5295 14.0291C10.3905 14.1681 10.2019 14.2462 10.0052 14.2462Z" fill="#12131A"/>
</svg>
