<svg width="18" height="21" viewBox="0 0 18 21" fill="none" xmlns="http://www.w3.org/2000/svg">
<path d="M2.38664 5.43798C2.41792 5.18777 2.63062 5 2.88278 5H15.1172C15.3694 5 15.5821 5.18777 15.6134 5.43798L17.3634 19.438C17.4007 19.7364 17.168 20 16.8672 20H1.13278C0.832033 20 0.59934 19.7364 0.636643 19.438L2.38664 5.43798Z" stroke="white"/>
<path d="M8.99577 4.97323H8.99527C8.6425 4.97323 8.32348 4.97454 8.03405 4.97574C7.49442 4.97796 7.0576 4.97977 6.6965 4.97182C6.1271 4.9593 5.83359 4.92178 5.67355 4.86232C5.60722 4.83768 5.58901 4.81772 5.5849 4.81307C5.58023 4.80781 5.56355 4.78771 5.54648 4.72174C5.50392 4.55726 5.5 4.30254 5.5 3.81548C5.5 2.88291 5.87615 2.20078 6.47542 1.7389C7.08929 1.26576 7.97156 1 8.99527 1C10.0119 1 10.8948 1.28131 11.5119 1.76504C12.1175 2.23984 12.4905 2.92529 12.4905 3.81548C12.4905 3.99066 12.4936 4.15353 12.4962 4.29416C12.4974 4.35862 12.4985 4.41841 12.4992 4.47257C12.5015 4.65647 12.499 4.77704 12.4881 4.86447C12.4842 4.89603 12.4798 4.91713 12.4764 4.9304C12.4746 4.93106 12.4728 4.93177 12.4707 4.93251C12.3458 4.97773 12.0803 5.00232 11.4757 4.9998C11.2678 4.99893 11.0115 4.99495 10.7136 4.99032C10.2381 4.98293 9.65639 4.97389 8.99577 4.97323Z" stroke="white"/>
</svg>
