<svg width="22" height="19" viewBox="0 0 22 19" fill="none" xmlns="http://www.w3.org/2000/svg">
<path d="M18.7497 18.8399H2.92969C2.20034 18.8399 1.50087 18.5502 0.985144 18.0344C0.469419 17.5187 0.179688 16.8192 0.179688 16.0899L0.179688 4.3999C0.179687 3.67056 0.469419 2.97108 0.985144 2.45536C1.50087 1.93963 2.20034 1.6499 2.92969 1.6499H18.7497C19.4782 1.65254 20.1762 1.94311 20.6913 2.45827C21.2065 2.97342 21.4971 3.67137 21.4997 4.3999V16.0899C21.4997 16.8192 21.21 17.5187 20.6942 18.0344C20.1785 18.5502 19.479 18.8399 18.7497 18.8399ZM2.92969 3.1499C2.59817 3.1499 2.28022 3.2816 2.0458 3.51602C1.81138 3.75044 1.67969 4.06838 1.67969 4.3999V16.0899C1.67969 16.4214 1.81138 16.7394 2.0458 16.9738C2.28022 17.2082 2.59817 17.3399 2.92969 17.3399H18.7497C19.0812 17.3399 19.3992 17.2082 19.6336 16.9738C19.868 16.7394 19.9997 16.4214 19.9997 16.0899V4.3999C19.9997 4.06838 19.868 3.75044 19.6336 3.51602C19.3992 3.2816 19.0812 3.1499 18.7497 3.1499H2.92969Z" fill="#12131A"/>
<path d="M20.7497 9.76001H0.929688C0.730775 9.76001 0.54001 9.68099 0.399357 9.54034C0.258705 9.39969 0.179688 9.20892 0.179688 9.01001C0.179688 8.8111 0.258705 8.62033 0.399357 8.47968C0.54001 8.33903 0.730775 8.26001 0.929688 8.26001H20.7497C20.9486 8.26001 21.1394 8.33903 21.28 8.47968C21.4207 8.62033 21.4997 8.8111 21.4997 9.01001C21.4997 9.20892 21.4207 9.39969 21.28 9.54034C21.1394 9.68099 20.9486 9.76001 20.7497 9.76001V9.76001Z" fill="#12131A"/>
<path d="M15.79 4.8C15.5911 4.8 15.4004 4.72098 15.2597 4.58033C15.1191 4.43968 15.04 4.24891 15.04 4.05V0.75C15.04 0.551088 15.1191 0.360322 15.2597 0.21967C15.4004 0.0790176 15.5911 0 15.79 0C15.989 0 16.1797 0.0790176 16.3204 0.21967C16.461 0.360322 16.54 0.551088 16.54 0.75V4.05C16.5414 4.14886 16.5229 4.24699 16.4857 4.3386C16.4485 4.4302 16.3933 4.51341 16.3234 4.58333C16.2535 4.65324 16.1702 4.70844 16.0786 4.74565C15.987 4.78286 15.8889 4.80135 15.79 4.8V4.8Z" fill="#12131A"/>
<path d="M5.87969 4.8C5.68957 4.7873 5.51141 4.70271 5.3814 4.56341C5.25138 4.42411 5.17927 4.24055 5.17969 4.05V0.75C5.17969 0.551088 5.25871 0.360322 5.39936 0.21967C5.54001 0.0790176 5.73078 0 5.92969 0C6.1286 0 6.31937 0.0790176 6.46002 0.21967C6.60067 0.360322 6.67969 0.551088 6.67969 0.75V4.05C6.68143 4.15328 6.66152 4.25577 6.62126 4.3509C6.581 4.44602 6.52127 4.53166 6.44591 4.6023C6.37056 4.67295 6.28124 4.72704 6.18373 4.76108C6.08621 4.79513 5.98264 4.80839 5.87969 4.8V4.8Z" fill="#12131A"/>
</svg>
