<svg width="20" height="20" viewBox="0 0 20 20" fill="none" xmlns="http://www.w3.org/2000/svg">
<path d="M14.8814 19.9999H5.11866C4.38232 19.9999 3.67614 19.7135 3.15547 19.2036C2.6348 18.6938 2.34229 18.0023 2.34229 17.2812V4.66628C2.34229 4.46963 2.42206 4.28103 2.56406 4.14198C2.70606 4.00292 2.89866 3.9248 3.09948 3.9248C3.3003 3.9248 3.49289 4.00292 3.6349 4.14198C3.7769 4.28103 3.85667 4.46963 3.85667 4.66628V17.2812C3.85667 17.609 3.98963 17.9233 4.2263 18.155C4.46297 18.3868 4.78396 18.517 5.11866 18.517H14.8814C15.048 18.5183 15.2132 18.4873 15.3675 18.4258C15.5217 18.3643 15.662 18.2734 15.7803 18.1586C15.8986 18.0437 15.9924 17.907 16.0565 17.7564C16.1205 17.6058 16.1535 17.4443 16.1535 17.2812V4.66628C16.1535 4.46963 16.2333 4.28103 16.3753 4.14198C16.5173 4.00292 16.7099 3.9248 16.9107 3.9248C17.1115 3.9248 17.3041 4.00292 17.4461 4.14198C17.5881 4.28103 17.6679 4.46963 17.6679 4.66628V17.2812C17.6679 17.6391 17.5957 17.9934 17.4556 18.3239C17.3154 18.6544 17.11 18.9546 16.8511 19.2071C16.5922 19.4597 16.285 19.6598 15.947 19.7958C15.609 19.9319 15.2469 20.0012 14.8814 19.9999Z" fill="#C2C2C2"/>
<path d="M13.8112 5.40781C13.6112 5.40525 13.4202 5.32631 13.2787 5.18781C13.1373 5.0493 13.0567 4.86219 13.0541 4.66634V1.70044C13.0541 1.63489 13.0275 1.57203 12.9801 1.52568C12.9328 1.47933 12.8686 1.45329 12.8017 1.45329H7.19843C7.13148 1.45329 7.06729 1.47933 7.01995 1.52568C6.97262 1.57203 6.94603 1.63489 6.94603 1.70044V4.66634C6.94603 4.86299 6.86625 5.05158 6.72425 5.19064C6.58225 5.32969 6.38965 5.40781 6.18883 5.40781C5.98801 5.40781 5.79542 5.32969 5.65342 5.19064C5.51142 5.05158 5.43164 4.86299 5.43164 4.66634V1.70044C5.44215 1.24756 5.6326 0.816551 5.96253 0.499015C6.29245 0.181479 6.73583 0.00245699 7.19843 0L12.8017 0C13.2702 0 13.7196 0.182278 14.051 0.506736C14.3823 0.831193 14.5684 1.27125 14.5684 1.7301V4.696C14.5606 4.88746 14.4774 5.06852 14.3362 5.20123C14.1951 5.33393 14.0069 5.40796 13.8112 5.40781Z" fill="#C2C2C2"/>
<path d="M7.90514 15.818C7.70432 15.818 7.51173 15.7399 7.36973 15.6009C7.22772 15.4618 7.14795 15.2732 7.14795 15.0766V9.00637C7.14795 8.80971 7.22772 8.62112 7.36973 8.48207C7.51173 8.34301 7.70432 8.26489 7.90514 8.26489C8.10596 8.26489 8.29856 8.34301 8.44056 8.48207C8.58256 8.62112 8.66234 8.80971 8.66234 9.00637V15.0963C8.66102 15.1924 8.64039 15.2873 8.60162 15.3756C8.56285 15.4638 8.50671 15.5437 8.4364 15.6108C8.36608 15.6778 8.28298 15.7306 8.19182 15.7661C8.10067 15.8017 8.00326 15.8193 7.90514 15.818Z" fill="#C2C2C2"/>
<path d="M12.1151 15.818C11.9143 15.818 11.7217 15.7399 11.5797 15.6009C11.4377 15.4618 11.3579 15.2732 11.3579 15.0766V9.00637C11.3579 8.80971 11.4377 8.62112 11.5797 8.48207C11.7217 8.34301 11.9143 8.26489 12.1151 8.26489C12.3159 8.26489 12.5085 8.34301 12.6505 8.48207C12.7925 8.62112 12.8723 8.80971 12.8723 9.00637V15.0963C12.867 15.2895 12.7849 15.4731 12.6435 15.6079C12.5021 15.7427 12.3125 15.8181 12.1151 15.818Z" fill="#C2C2C2"/>
<path d="M19.2429 5.40781H0.757238C0.647266 5.42968 0.533706 5.42734 0.424772 5.40096C0.315838 5.37458 0.214253 5.32481 0.127367 5.25527C0.0404816 5.18573 -0.0295336 5.09815 -0.0776132 4.99886C-0.125693 4.89957 -0.150635 4.79106 -0.150635 4.68117C-0.150635 4.57128 -0.125693 4.46277 -0.0776132 4.36348C-0.0295336 4.26419 0.0404816 4.17661 0.127367 4.10707C0.214253 4.03753 0.315838 3.98776 0.424772 3.96138C0.533706 3.935 0.647266 3.93266 0.757238 3.95453H19.2429C19.4437 3.95453 19.6363 4.03265 19.7783 4.1717C19.9203 4.31075 20 4.49935 20 4.696C20 4.89265 19.9203 5.08125 19.7783 5.2203C19.6363 5.35935 19.4437 5.43747 19.2429 5.43747V5.40781Z" fill="#C2C2C2"/>
</svg>
