<svg width="93" height="36" viewBox="0 0 93 36" fill="none" xmlns="http://www.w3.org/2000/svg">
<path d="M43.4475 17.5093V28.1234H40.0791V1.91284H49.0089C51.2721 1.91284 53.2019 2.66723 54.7809 4.17601C56.3949 5.68478 57.2019 7.52688 57.2019 9.70232C57.2019 11.9304 56.3949 13.7725 54.7809 15.2637C53.2195 16.755 51.2896 17.4918 49.0089 17.4918H43.4475V17.5093ZM43.4475 5.14092V14.2813H49.0791C50.4124 14.2813 51.5353 13.8251 52.4124 12.9304C53.3072 12.0357 53.7633 10.9479 53.7633 9.71986C53.7633 8.50934 53.3072 7.43916 52.4124 6.54443C51.5353 5.6146 50.43 5.15846 49.0791 5.15846H43.4475V5.14092Z" fill="white"/>
<path d="M66.0082 9.59692C68.4994 9.59692 70.4643 10.2636 71.9029 11.5969C73.3415 12.9303 74.0608 14.7548 74.0608 17.0706V28.1233H70.8503V25.632H70.7099C69.324 27.6847 67.4643 28.7022 65.1485 28.7022C63.1661 28.7022 61.5169 28.1232 60.1836 26.9478C58.8503 25.7724 58.1836 24.3162 58.1836 22.5618C58.1836 20.7022 58.8853 19.2285 60.2889 18.1408C61.6924 17.0355 63.5696 16.4917 65.9029 16.4917C67.9029 16.4917 69.552 16.8601 70.8327 17.5969V16.825C70.8327 15.6496 70.3766 14.6671 69.4468 13.8425C68.5169 13.018 67.4292 12.6145 66.1836 12.6145C64.3064 12.6145 62.8152 13.4039 61.7275 15.0004L58.7625 13.1408C60.3941 10.7724 62.8152 9.59692 66.0082 9.59692ZM61.6573 22.6145C61.6573 23.4917 62.0257 24.2285 62.7801 24.8075C63.5169 25.3864 64.3941 25.6846 65.3941 25.6846C66.8152 25.6846 68.0783 25.1583 69.1836 24.1057C70.2889 23.0531 70.8503 21.825 70.8503 20.4039C69.7976 19.5794 68.3415 19.1583 66.4643 19.1583C65.0959 19.1583 63.9555 19.4917 63.0432 20.1408C62.1134 20.825 61.6573 21.6496 61.6573 22.6145Z" fill="white"/>
<path d="M92.3776 10.176L81.1495 36.0006H77.6758L81.8513 26.9655L74.4478 10.176H78.1144L83.4478 23.0532H83.5179L88.7109 10.176H92.3776Z" fill="white"/>
<path d="M30.0494 15.3684C30.0494 14.2701 29.9512 13.2193 29.7687 12.2087H15.6494V17.9982L23.781 18C23.4512 19.9263 22.3898 21.5684 20.7635 22.6631V26.4193H25.6038C28.4301 23.8035 30.0494 19.9368 30.0494 15.3684Z" fill="#4285F4"/>
<path d="M20.7646 22.6633C19.4172 23.5721 17.6821 24.1037 15.6523 24.1037C11.7312 24.1037 8.40492 21.4616 7.21369 17.9001H2.2207V21.7738C4.69439 26.6826 9.7786 30.051 15.6523 30.051C19.7119 30.051 23.1225 28.7159 25.6049 26.4177L20.7646 22.6633Z" fill="#34A853"/>
<path d="M6.74361 15.027C6.74361 14.027 6.91028 13.0603 7.21379 12.1515V8.27783H2.2208C1.198 10.3077 0.622559 12.5989 0.622559 15.027C0.622559 17.455 1.19975 19.7463 2.2208 21.7761L7.21379 17.9024C6.91028 16.9936 6.74361 16.027 6.74361 15.027Z" fill="#FABB05"/>
<path d="M15.6523 5.94737C17.8681 5.94737 19.8523 6.71053 21.419 8.20176L25.7084 3.91579C23.1032 1.48948 19.7067 0 15.6523 0C9.78036 0 4.69439 3.36842 2.2207 8.2772L7.21369 12.1509C8.40492 8.58948 11.7312 5.94737 15.6523 5.94737Z" fill="#E94235"/>
</svg>
