<svg width="23" height="20" viewBox="0 0 23 20" fill="none" xmlns="http://www.w3.org/2000/svg">
<path d="M11.2991 2.66594L11.6691 3.04436L12.0259 2.65342C14.1456 0.330847 16.8222 0.04082 18.9276 1.05308C21.0421 2.06964 22.6362 4.42848 22.4908 7.53834C22.1923 9.94566 21.1219 11.7051 19.3587 13.4265C17.9278 14.8235 16.0703 16.1696 13.8156 17.8034C13.2444 18.2173 12.6477 18.6497 12.026 19.1061C11.8028 19.27 11.498 19.2725 11.2723 19.1125C10.6954 18.7037 10.1373 18.3126 9.59912 17.9355C7.26106 16.297 5.29622 14.9202 3.77664 13.4798C1.93749 11.7365 0.80015 9.94298 0.50005 7.55046C0.510393 4.42867 2.112 2.06828 4.22359 1.05308C6.3244 0.043061 9.01022 0.32518 11.2991 2.66594Z" stroke="#020202"/>
</svg>
