<svg width="52" height="34" viewBox="0 0 52 34" fill="none" xmlns="http://www.w3.org/2000/svg">
<g clip-path="url(#clip0_8803_3217)">
<path fill-rule="evenodd" clip-rule="evenodd" d="M49.4041 0.326904H2.5963C1.9684 0.326904 1.4003 0.581904 0.989495 0.995135C0.578695 1.40837 0.325195 1.97983 0.325195 2.61144V31.3885C0.325195 32.0188 0.579995 32.5903 0.990795 33.0035C1.4016 33.4168 1.9697 33.6731 2.5963 33.6731H49.4041C50.032 33.6731 50.6001 33.4181 51.0109 33.0048C51.4217 32.5916 51.6752 32.0201 51.6752 31.3885V2.61144C51.6752 1.98114 51.4204 1.40967 51.0096 0.996443C50.5988 0.583212 50.0307 0.326904 49.4041 0.326904Z" stroke="white" stroke-width="0.5"/>
<path fill-rule="evenodd" clip-rule="evenodd" d="M19.0557 5.91748H32.7096V28.041H19.0557V5.91748Z" fill="#FF5F00"/>
<path fill-rule="evenodd" clip-rule="evenodd" d="M20.4623 16.9803C20.4584 12.6649 22.4552 8.58492 25.8781 5.92115C20.0632 1.38608 11.7133 2.04777 6.69661 7.43808C1.67861 12.8271 1.67861 21.1375 6.69661 26.5278C11.7146 31.9168 20.0632 32.5772 25.8781 28.0447C22.4539 25.377 20.4571 21.297 20.461 16.9816L20.4623 16.9803Z" fill="#EB001B"/>
<path d="M47.4972 26.2626V25.342H47.7143V25.1523H47.1982V25.342H47.4023V26.2626H47.4972ZM48.4982 26.2626V25.1523H48.3422L48.1602 25.9448L47.9782 25.1523H47.8222V26.2626H47.9353V25.4217L48.1043 26.1436H48.2213L48.3903 25.4217V26.2626H48.4982Z" fill="#F79E1B"/>
<path fill-rule="evenodd" clip-rule="evenodd" d="M48.8255 16.9805C48.8255 22.3682 45.725 27.2812 40.8409 29.635C35.9568 31.9889 30.1471 31.369 25.8779 28.0396C29.2995 25.3719 31.2963 21.2959 31.2963 16.9792C31.2963 12.6625 29.2995 8.58379 25.8779 5.9161C30.1471 2.58933 35.9581 1.96949 40.8409 4.32333C45.725 6.67718 48.8255 11.5915 48.8255 16.9779V16.9818V16.9805Z" fill="#F79E1B"/>
</g>
<defs>
<clipPath id="clip0_8803_3217">
<rect width="52" height="34" fill="white"/>
</clipPath>
</defs>
</svg>
