<svg width="21" height="16" viewBox="0 0 21 16" fill="none" xmlns="http://www.w3.org/2000/svg">
<path d="M10.4958 15.5C5.22358 15.5 1.97534 11.8558 0.494384 9.63627C0.17142 9.15747 -0.00195312 8.58591 -0.00195312 8C-0.00195313 7.41409 0.17142 6.84253 0.494384 6.36373C1.97534 4.17515 5.22358 0.5 10.4958 0.5C15.768 0.5 19.0261 4.17515 20.4972 6.37405C20.8199 6.8491 20.9932 7.41733 20.9932 8C20.9932 8.58267 20.8199 9.1509 20.4972 9.62595C19.0261 11.8558 15.7976 15.5 10.4958 15.5ZM10.4958 2.07949C5.89495 2.07949 3.01201 5.34171 1.70877 7.24123C1.55251 7.46046 1.46811 7.72658 1.46811 8C1.46811 8.27342 1.55251 8.53954 1.70877 8.75877C3.01201 10.7099 5.89495 13.9205 10.4958 13.9205C15.0966 13.9205 17.9796 10.648 19.2828 8.75877C19.4314 8.54401 19.5114 8.28571 19.5114 8.02065C19.5114 7.75559 19.4314 7.49729 19.2828 7.28252C17.9796 5.31074 15.1065 2.04852 10.4958 2.04852V2.07949Z" fill="#12131A"/>
<path d="M10.4964 11.4014C9.852 11.4014 9.22208 11.2016 8.68628 10.8272C8.15049 10.4529 7.73289 9.92084 7.48629 9.29834C7.23969 8.67584 7.17517 7.99086 7.30089 7.33001C7.4266 6.66917 7.73691 6.06215 8.19256 5.5857C8.64822 5.10926 9.22876 4.7848 9.86077 4.65335C10.4928 4.5219 11.1479 4.58937 11.7432 4.84722C12.3386 5.10506 12.8474 5.54171 13.2054 6.10195C13.5634 6.66219 13.7545 7.32085 13.7545 7.99464C13.7545 8.89816 13.4112 9.76468 12.8002 10.4036C12.1892 11.0425 11.3605 11.4014 10.4964 11.4014ZM10.4964 6.13641C10.1449 6.13641 9.80131 6.2454 9.50906 6.44958C9.21681 6.65376 8.98903 6.94398 8.85452 7.28353C8.72001 7.62307 8.68482 7.9967 8.75339 8.35716C8.82196 8.71762 8.99122 9.04872 9.23976 9.3086C9.4883 9.56848 9.80495 9.74546 10.1497 9.81716C10.4944 9.88886 10.8517 9.85206 11.1765 9.71141C11.5012 9.57077 11.7788 9.33259 11.974 9.02701C12.1693 8.72143 12.2735 8.36216 12.2735 7.99464C12.271 7.50264 12.0829 7.03157 11.7502 6.68367C11.4174 6.33577 10.9669 6.13912 10.4964 6.13641Z" fill="#12131A"/>
</svg>
