<svg width="40" height="40" viewBox="0 0 40 40" fill="none" xmlns="http://www.w3.org/2000/svg">
<path d="M39.9871 19.0933C39.8041 13.9119 37.6078 9.09326 33.8427 5.51813C30.156 2.02073 25.2404 0.0259067 20.1157 0C20.0895 0 20.0372 0 20.0111 0C14.468 0 9.26478 2.22798 5.4735 6.21762C1.78682 10.0518 -0.148038 15.1036 0.00884252 20.3886C0.0872826 23.5233 0.950124 26.6062 2.44049 29.3264L0.66251 39.8187C0.66251 39.9223 0.714804 40 0.81939 40H0.845537L11.3042 37.6943C13.9973 38.9896 16.9781 39.6373 19.9849 39.6373C20.168 39.6373 20.3771 39.6373 20.5602 39.6373C26.1294 39.4819 31.2803 37.0984 34.9931 32.9275C38.3922 29.1192 40.1702 24.1451 39.9871 19.0933ZM20.4817 36.1917C20.3248 36.1917 20.168 36.1917 20.0111 36.1917C17.3703 36.1917 14.7294 35.57 12.4024 34.3523L11.8533 34.0674L4.7414 35.7254L6.04873 28.601L5.73497 28.0829C4.32305 25.7254 3.53865 23.0052 3.46021 20.2591C3.19874 11.2435 10.3891 3.67876 19.5143 3.41969C19.6712 3.41969 19.828 3.41969 19.9849 3.41969C28.8748 3.41969 36.2482 10.4663 36.5096 19.3264C36.7973 28.3679 29.5808 35.9326 20.4817 36.1917Z" fill="#020202"/>
<path d="M13.0558 10.2334C12.7159 10.2334 12.1929 10.363 11.7484 10.8034C11.2778 11.2956 9.94431 12.4614 9.86587 14.8966C9.78743 17.3578 11.5131 19.793 11.7484 20.1298C11.9838 20.4666 15.0429 25.7516 20.0892 27.9018C23.0438 29.1713 24.3511 29.3785 25.1878 29.3785C25.5278 29.3785 25.7892 29.3526 26.0768 29.3267C26.992 29.2749 29.0837 28.2127 29.5282 27.0728C29.9727 25.9329 30.025 24.9225 29.8942 24.7153C29.7635 24.508 29.4498 24.3785 28.953 24.0935C28.4562 23.8345 26.0245 22.5391 25.58 22.3578C25.3709 22.2801 25.214 22.2282 25.031 22.2282C24.8218 22.2282 24.6388 22.3319 24.4296 22.5909C24.0374 23.0832 23.0961 24.1713 22.7823 24.4821C22.6255 24.6376 22.4424 24.7412 22.2333 24.7412C22.0764 24.7412 21.8934 24.6894 21.6842 24.5858C21.0828 24.3008 19.5924 23.7308 17.736 21.9692C16.298 20.5961 15.3305 18.9381 15.0429 18.4459C14.7553 17.9277 15.0429 17.6687 15.3044 17.4355C15.5397 17.2282 15.8273 16.8656 16.0888 16.5806C16.3503 16.2956 16.4287 16.0883 16.6117 15.7775C16.7948 15.4407 16.7163 15.1557 16.5856 14.8966C16.481 14.6635 15.592 12.1764 15.1737 11.1661C14.8337 10.3371 14.4154 10.2852 14.0755 10.2593C13.7879 10.2334 13.448 10.2334 13.1081 10.2075C13.0819 10.2334 13.0819 10.2334 13.0558 10.2334Z" fill="#020202"/>
</svg>
