<svg width="20" height="20" viewBox="0 0 20 20" fill="none" xmlns="http://www.w3.org/2000/svg">
<path d="M9.99935 1.66675C5.40435 1.66675 1.66602 5.40508 1.66602 10.0001C1.66602 14.5951 5.40435 18.3334 9.99935 18.3334C14.5943 18.3334 18.3327 14.5951 18.3327 10.0001C18.3327 5.40508 14.5943 1.66675 9.99935 1.66675ZM9.99935 16.6667C6.32352 16.6667 3.33268 13.6759 3.33268 10.0001C3.33268 6.32425 6.32352 3.33341 9.99935 3.33341C13.6752 3.33341 16.666 6.32425 16.666 10.0001C16.666 13.6759 13.6752 16.6667 9.99935 16.6667Z" fill="#9C9C9C"/>
<path d="M10.8327 5.83325H9.16602V10.8333H14.166V9.16659H10.8327V5.83325Z" fill="#9C9C9C"/>
</svg>
