<svg width="15" height="20" viewBox="0 0 15 20" fill="none" xmlns="http://www.w3.org/2000/svg">
<path d="M3.74509 13.3398C1.98528 11.4792 1.92379 8.60632 3.69519 6.67616C4.51427 5.7803 5.59385 5.23729 6.73463 5.04698L6.7171 7.7607C6.71569 7.98621 6.99228 8.10922 7.1722 7.96301L11.7016 4.28412C11.8585 4.15666 11.86 3.92588 11.7047 3.79654L7.22068 0.0654417C7.0426 -0.0827878 6.76445 0.0369822 6.76304 0.262496L6.74791 2.73007C4.93433 2.93562 3.19262 3.75526 1.89498 5.17134C-0.69168 7.99066 -0.598328 12.1718 1.97964 14.8837C2.15613 15.0694 2.45736 15.0842 2.64984 14.9136L3.71876 13.966C3.90653 13.7995 3.9168 13.5214 3.74509 13.3398Z" fill="#A2A2A2"/>
<path d="M13.0204 5.11633C12.844 4.93062 12.5427 4.91568 12.3502 5.08633L11.2812 6.03389C11.0934 6.20033 11.0831 6.47849 11.2548 6.66013C13.0147 8.52077 13.0761 11.3937 11.3048 13.3239C10.4858 14.2197 9.40622 14.7627 8.26533 14.9531L8.28297 12.2393C8.28439 12.0138 8.0077 11.8908 7.82789 12.037L3.29833 15.7159C3.14138 15.8433 3.13988 16.0742 3.29534 16.2035L7.77938 19.9345C7.95748 20.0828 8.23559 19.963 8.23702 19.7374L8.2521 17.2699C10.0656 17.0643 11.8074 16.2447 13.105 14.8287C15.6917 12.0093 15.5983 7.82816 13.0204 5.11633Z" fill="#A2A2A2"/>
</svg>
