<svg width="21" height="21" viewBox="0 0 21 21" fill="none" xmlns="http://www.w3.org/2000/svg">
<circle cx="10.666" cy="10.5" r="9.5" stroke="white"/>
<circle cx="10.666" cy="8.5" r="3.5" stroke="white"/>
<path d="M3.31309 16.1471L3.67192 15.5457C3.94596 15.0865 4.2522 14.6472 4.58835 14.2312V14.2312C5.01872 13.6987 5.49652 13.2063 6.01588 12.7601L6.23202 12.5745C6.86003 12.0349 7.53325 11.5504 8.24423 11.1261L8.4669 10.9933" stroke="white"/>
<path d="M17.8978 16.6465L17.5533 15.9563C17.3 15.4488 17.0047 14.9632 16.6706 14.5048V14.5048C16.2375 13.9104 15.7413 13.3647 15.1908 12.8771L14.891 12.6116C14.2809 12.0712 13.6245 11.5857 12.9292 11.1605L12.666 10.9995" stroke="white"/>
</svg>
