<svg width="52" height="34" viewBox="0 0 52 34" fill="none" xmlns="http://www.w3.org/2000/svg">
<g clip-path="url(#clip0_8803_3207)">
<path fill-rule="evenodd" clip-rule="evenodd" d="M49.4041 0.326904H2.5963C1.9684 0.326904 1.4003 0.581904 0.989495 0.995135C0.578695 1.40837 0.325195 1.97983 0.325195 2.61144V31.3885C0.325195 32.0188 0.579995 32.5903 0.990795 33.0035C1.4016 33.4168 1.9697 33.6731 2.5963 33.6731H49.4041C50.032 33.6731 50.6001 33.4181 51.0109 33.0048C51.4217 32.5916 51.6752 32.0201 51.6752 31.3885V2.61144C51.6752 1.98114 51.4204 1.40967 51.0096 0.996443C50.5988 0.583212 50.0307 0.326904 49.4041 0.326904Z" stroke="white" stroke-width="0.5"/>
<path fill-rule="evenodd" clip-rule="evenodd" d="M22.4808 25.4934H18.2974L20.9143 9.64283H25.0977L22.4808 25.4934ZM37.6453 10.0299C36.8211 9.71083 35.512 9.35645 33.8935 9.35645C29.7621 9.35645 26.8527 11.5141 26.8345 14.6003C26.8007 16.8757 28.9184 18.1402 30.5018 18.9C32.1203 19.6754 32.6702 20.1815 32.6702 20.8733C32.6533 21.9338 31.3624 22.4242 30.1586 22.4242C28.4881 22.4242 27.5937 22.1718 26.2326 21.5808L25.6827 21.3271L25.0977 24.8853C26.0779 25.3234 27.8862 25.7118 29.7621 25.7288C34.1522 25.7288 37.0096 23.6038 37.0421 20.3162C37.0603 18.5116 35.9423 17.1294 33.5321 16.0008C32.0683 15.2751 31.1726 14.7847 31.1726 14.0432C31.1895 13.3684 31.9305 12.678 33.5828 12.678C34.9426 12.644 35.941 12.9657 36.6989 13.2848L37.0759 13.4534L37.6453 10.0312V10.0299Z" fill="#0742A6"/>
<path d="M43.2056 19.8768C43.5501 18.968 44.8761 15.4437 44.8761 15.4437C44.8579 15.4777 45.2193 14.5153 45.426 13.9268L45.7185 15.2921C45.7185 15.2921 46.5115 19.0844 46.6831 19.8781H43.2056V19.8768ZM48.3692 9.64413H45.1335C44.1364 9.64413 43.3785 9.93182 42.9469 10.9597L36.7329 25.4934H41.123L42.0005 23.116H47.3721C47.4917 23.6731 47.8713 25.4934 47.8713 25.4934H51.7453L48.3679 9.64282L48.3692 9.64413Z" fill="#0742A6"/>
<path fill-rule="evenodd" clip-rule="evenodd" d="M14.8031 9.64282L10.7068 20.4522L10.2596 18.2605C9.50171 15.7314 7.12661 12.984 4.47461 11.6174L8.22901 25.4764H12.6529L19.227 9.64282H14.8031Z" fill="#0742A6"/>
<path fill-rule="evenodd" clip-rule="evenodd" d="M6.903 9.64291H0.171604L0.104004 9.9646C5.356 11.2801 8.8322 14.45 10.2609 18.2619L8.7971 10.9781C8.5553 9.96199 7.8143 9.67691 6.903 9.6416V9.64291Z" fill="#0742A6"/>
</g>
<defs>
<clipPath id="clip0_8803_3207">
<rect width="52" height="34" fill="white"/>
</clipPath>
</defs>
</svg>
