<svg width="44" height="44" viewBox="0 0 44 44" fill="none" xmlns="http://www.w3.org/2000/svg">
<path d="M43.4862 21.0253C43.2894 15.4553 40.9284 10.2753 36.8809 6.43199C32.9177 2.67228 27.6334 0.52785 22.1243 0.5C22.0962 0.5 22.04 0.5 22.0119 0.5C16.0531 0.5 10.4596 2.89508 6.38402 7.18394C2.42083 11.3057 0.340859 16.7364 0.509506 22.4177C0.593829 25.7876 1.52138 29.1017 3.12352 32.0259L1.2122 43.3051C1.2122 43.4165 1.26841 43.5 1.38084 43.5H1.40895L12.652 41.0214C15.5471 42.4139 18.7514 43.1101 21.9838 43.1101C22.1805 43.1101 22.4054 43.1101 22.6022 43.1101C28.5891 42.943 34.1263 40.3808 38.1176 35.897C41.7716 31.8031 43.6829 26.456 43.4862 21.0253ZM22.5178 39.4061C22.3492 39.4061 22.1805 39.4061 22.0119 39.4061C19.173 39.4061 16.3341 38.7377 13.8326 37.4288L13.2423 37.1224L5.597 38.9048L7.00239 31.2461L6.66509 30.6891C5.14728 28.1548 4.30405 25.2306 4.21972 22.2785C3.93865 12.5868 11.6683 4.45466 21.4779 4.17617C21.6465 4.17617 21.8151 4.17617 21.9838 4.17617C31.5404 4.17617 39.4668 11.7513 39.7479 21.2759C40.0571 30.9955 32.2993 39.1276 22.5178 39.4061Z" fill="#020202"/>
<path d="M14.535 11.5005C14.1696 11.5005 13.6074 11.6398 13.1296 12.1132C12.6236 12.6423 11.1901 13.8956 11.1058 16.5135C11.0215 19.1592 12.8766 21.7771 13.1296 22.1391C13.3825 22.5012 16.6711 28.1825 22.0959 30.494C25.2721 31.8587 26.6775 32.0815 27.5769 32.0815C27.9423 32.0815 28.2234 32.0536 28.5326 32.0258C29.5164 31.9701 31.765 30.8282 32.2428 29.6028C32.7206 28.3775 32.7769 27.2913 32.6363 27.0685C32.4958 26.8457 32.1585 26.7065 31.6244 26.4001C31.0904 26.1216 28.4764 24.7291 27.9985 24.5342C27.7737 24.4506 27.605 24.3949 27.4083 24.3949C27.1834 24.3949 26.9867 24.5063 26.7618 24.7848C26.3402 25.314 25.3283 26.4837 24.991 26.8179C24.8224 26.985 24.6256 27.0964 24.4008 27.0964C24.2321 27.0964 24.0354 27.0407 23.8105 26.9293C23.164 26.6229 21.5619 26.0102 19.5662 24.1164C18.0203 22.6404 16.9803 20.858 16.6711 20.3289C16.362 19.7719 16.6711 19.4934 16.9522 19.2427C17.2052 19.0199 17.5144 18.63 17.7954 18.3237C18.0765 18.0173 18.1608 17.7945 18.3576 17.4604C18.5544 17.0983 18.47 16.792 18.3295 16.5135C18.2171 16.2628 17.2614 13.5892 16.8117 12.5031C16.4463 11.6119 15.9966 11.5562 15.6312 11.5284C15.322 11.5005 14.9566 11.5005 14.5912 11.4727C14.5631 11.5005 14.5631 11.5005 14.535 11.5005Z" fill="#020202"/>
</svg>
