<svg width="48" height="48" viewBox="0 0 48 48" fill="none" xmlns="http://www.w3.org/2000/svg">
<path d="M5.66699 11.7778C9.5781 5.91111 16.4225 2 24.0003 2C36.2225 2 46.0003 11.7778 46.0003 24C46.0003 36.2222 36.2225 46 24.0003 46C16.4225 46 9.5781 42.0889 5.66699 36.2222" stroke="#020202" stroke-width="2.5" stroke-miterlimit="10" stroke-linecap="round" stroke-linejoin="round"/>
<path d="M1.99976 10.3108L5.66642 12.0219L9.33309 13.4886L6.15534 15.933L2.97756 18.3775L2.48867 14.2219L1.99976 10.3108Z" stroke="#020202" stroke-width="2.5" stroke-miterlimit="10" stroke-linecap="round" stroke-linejoin="round"/>
<path d="M24.0007 39.1555C32.2359 39.1555 38.9118 32.4796 38.9118 24.2444C38.9118 16.0092 32.2359 9.33325 24.0007 9.33325C15.7655 9.33325 9.0896 16.0092 9.0896 24.2444C9.0896 32.4796 15.7655 39.1555 24.0007 39.1555Z" stroke="#020202" stroke-width="3" stroke-miterlimit="10"/>
<path d="M25.1181 23.1391V18.0191C26.4085 18.3391 27.3763 18.6591 28.3442 19.2991C28.6668 19.2991 28.6668 19.6191 28.9894 19.6191C29.6346 19.6191 30.2799 18.9791 30.2799 18.3391C30.2799 18.0191 30.2799 17.6991 29.9572 17.3791C28.6668 16.0991 27.0537 15.4591 25.1181 15.4591V13.5391C25.1181 12.8991 24.7954 12.5791 24.1502 12.5791C23.505 12.5791 23.1824 12.8991 23.1824 13.5391V15.1391C19.6337 15.4591 17.3754 17.3791 17.3754 20.2591C17.3754 23.7791 20.2789 24.7391 23.1824 25.3791V31.4591C21.5693 31.1391 20.2789 30.4991 18.9884 29.8591C18.6658 29.5391 18.3432 29.5391 18.3432 29.5391C17.698 29.5391 17.0527 30.1791 17.0527 30.8191C17.0527 31.1391 17.0528 31.4591 17.3754 31.7791C18.9884 33.0591 20.9241 34.0191 23.1824 34.0191V35.6191C23.1824 36.2591 23.505 36.5791 24.1502 36.5791C24.7954 36.5791 25.1181 36.2591 25.1181 35.6191V34.0191C29.312 33.6991 30.9251 31.1391 30.9251 28.5791C31.2477 25.0591 28.0216 24.0991 25.1181 23.1391ZM23.1824 22.8191C21.5693 22.4991 20.2789 21.8591 20.2789 20.5791C20.2789 19.2991 21.5693 18.3391 23.1824 18.0191V22.8191ZM25.1181 31.7791V26.3391C26.7311 26.6591 28.3442 27.6191 28.3442 28.8991C28.3442 30.1791 27.3763 31.4591 25.1181 31.7791Z" fill="#020202"/>
</svg>
