<svg width="238" height="56" viewBox="0 0 238 56" fill="none" xmlns="http://www.w3.org/2000/svg">
<path d="M46.6087 31.9648C46.6119 31.9658 46.6155 31.9658 46.6188 31.9648C46.622 31.966 46.6256 31.966 46.6289 31.9648C46.631 31.9621 46.6322 31.9587 46.6322 31.9553C46.6322 31.9519 46.631 31.9485 46.6289 31.9458L46.6087 31.9648Z" fill="black"/>
<path d="M29.948 46.2023C29.9449 46.2025 29.942 46.2039 29.9398 46.2061C29.9376 46.2083 29.9362 46.2112 29.936 46.2143C29.9362 46.2174 29.9376 46.2204 29.9398 46.2226C29.942 46.2248 29.9449 46.2261 29.948 46.2264C29.95 46.227 29.9521 46.2272 29.9542 46.2268C29.9562 46.2265 29.9582 46.2257 29.9599 46.2244C29.9615 46.2232 29.9629 46.2216 29.9639 46.2197C29.9648 46.2179 29.9653 46.2158 29.9653 46.2137C29.9653 46.2116 29.9648 46.2096 29.9639 46.2077C29.9629 46.2059 29.9615 46.2043 29.9599 46.203C29.9582 46.2018 29.9562 46.201 29.9542 46.2006C29.9521 46.2003 29.95 46.2004 29.948 46.2011" fill="black"/>
<path d="M28.0153 54.9238C13.1587 54.9238 1.07092 42.8451 1.07092 27.997C1.07092 13.1489 13.1575 1.07022 28.0153 1.07022C42.8731 1.07022 54.9597 13.1489 54.9597 27.997C54.9597 42.8451 42.8731 54.9238 28.0153 54.9238Z" fill="white"/>
<path d="M28.0153 56C12.5656 56 0 43.4389 0 28.003C0 12.5671 12.5644 0 28.0153 0C43.4661 0 56.0378 12.555 56.0378 27.997C56.0378 43.4389 43.4661 56 28.0153 56ZM28.0153 2.14643C13.7517 2.14643 2.14662 13.7428 2.14662 27.997C2.14662 42.2512 13.7517 53.8475 28.0153 53.8475C42.2788 53.8475 53.8815 42.2524 53.8815 27.997C53.8815 13.7415 42.2788 2.14643 28.0153 2.14643Z" fill="black"/>
<path d="M28.0054 6.14238C28.0054 6.14238 27.992 6.1242 27.9702 6.09875C27.9575 6.11249 27.9458 6.12707 27.935 6.14238H28.0054Z" fill="black"/>
<path d="M50.8944 35.687C52.0975 34.6096 53.9773 26.5898 47.9692 21.2522C50.4772 21.7285 52.123 23.6326 52.123 23.6326C52.2006 18.0453 44.8463 13.5597 44.8463 13.5597C46.0734 13.5788 47.2773 13.8966 48.3536 14.4857C47.4914 11.7805 41.6639 9.02446 41.6639 9.02446C42.3431 8.999 43.8858 9.32503 43.8858 9.32503C42.6269 7.74581 37.5963 6.06599 37.5963 6.06599L38.6029 5.79087C35.5976 4.11226 33.0859 4.78734 33.0859 4.78734L33.5043 4.03712C29.4658 4.55827 28.1851 5.8551 27.9765 6.0975C27.9983 6.12174 28.0129 6.13992 28.0129 6.13992H27.9401C27.9514 6.12509 27.9636 6.11093 27.9765 6.0975C27.7679 5.8551 26.4872 4.55706 22.4474 4.03712L22.867 4.78734C22.867 4.78734 20.3917 4.11226 17.3865 5.79087L18.4319 6.06599C18.4319 6.06599 13.32 7.74581 12.0648 9.32503C12.0648 9.32503 13.6074 8.999 14.2866 9.02446C14.2866 9.02446 8.384 11.7805 7.52292 14.4857C8.5993 13.8966 9.80321 13.5788 11.0303 13.5597C11.0303 13.5597 3.74632 18.0441 3.82394 23.6326C3.82394 23.6326 5.46968 21.7285 7.97771 21.2522C1.96959 26.585 3.887 34.6096 5.08887 35.687C5.08887 35.687 6.04454 32.0511 8.31608 31.176C4.73837 39.1448 8.7733 44.1758 11.7119 45.7926C11.7119 45.7926 11.986 42.5311 13.4753 41.8548C12.1412 47.3803 18.4901 50.7981 22.5262 51.8501C22.5262 51.8501 20.6076 49.6358 21.1922 47.2676C23.1775 51.2526 27.0135 52.5834 27.9316 52.5834L28.0165 52.621C28.9297 52.621 32.7706 51.2526 34.7559 47.2676C35.3429 49.6358 33.4219 51.8501 33.4219 51.8501C37.4568 50.7981 43.8057 47.3803 42.4729 41.8548C43.9622 42.5311 44.235 45.8665 44.235 45.8665C47.176 44.2497 51.211 39.1448 47.6308 31.176C49.9024 32.0535 50.8944 35.687 50.8944 35.687ZM12.7342 12.6774C14.8227 10.1855 18.4452 12.8592 18.5653 14.9111C14.5534 12.1453 11.4717 15.168 14.4418 19.4912C11.9471 18.8695 11.5578 13.9221 12.7294 12.6774M33.109 42.2633C32.7233 43.4508 32.3994 44.6576 32.1388 45.8787C29.3785 44.846 25.4151 45.1381 23.8082 45.8787C23.5451 44.6575 23.2188 43.4507 22.8307 42.2633C22.291 40.678 26.606 38.7582 27.3483 38.4879C27.9037 38.2298 28.3391 38.3922 28.5986 38.4879C29.3397 38.7606 33.6559 40.678 33.1163 42.2633M39.4373 31.5032C40.9423 29.7507 39.9757 27.3485 39.9757 27.3485C37.7818 30.6948 37.931 32.5686 34.3569 31.1057C39.5937 35.5295 36.1325 36.5948 34.9185 36.9317C35.3941 37.0686 35.8965 37.0844 36.3799 36.9778C35.7735 38.7303 33.8172 37.8747 33.8172 37.8747C34.1326 38.3922 35.3005 38.6406 35.3005 38.6406C34.4018 39.6102 33.3224 38.6843 33.3224 38.6843C33.4122 39.2454 34.2927 39.8066 34.2927 39.8066C33.3018 40.7762 31.4366 39.8526 28.3124 36.9099V34.7986C28.3124 34.7986 30.9805 32.8788 32.2794 30.9918C29.6829 32.6886 26.7661 33.08 23.6493 30.9736C24.708 32.8364 27.6381 34.8326 27.6381 34.8326V36.916C24.514 39.8587 22.6475 40.7798 21.6591 39.8126C21.6591 39.8126 22.5372 39.2515 22.6293 38.6903C22.6293 38.6903 21.55 39.6115 20.6513 38.6467C20.6513 38.6467 21.8192 38.3983 22.1345 37.8807C22.1345 37.8807 20.1783 38.7364 19.5707 36.9839C20.0545 37.0905 20.5572 37.0747 21.0333 36.9378C19.8205 36.6009 16.3568 35.4895 21.5948 31.0645C18.3203 32.3977 18.4853 31.0718 15.976 27.3485C15.976 27.3485 15.0058 29.7507 16.5145 31.5032C13.873 31.0754 13.7057 22.5188 14.6153 20.9698C18.313 18.0586 19.293 11.8048 23.1714 14.2627C24.7553 15.2904 26.9311 18.7119 27.9413 18.8973H27.9983C29.0086 18.7119 31.1831 15.2904 32.7682 14.2627C36.6491 11.8048 37.6193 18.055 41.3329 20.9698C42.2424 22.5188 42.0739 31.0754 39.4336 31.5032M41.9332 19.4912C44.9106 15.168 41.8277 12.1453 37.8097 14.9111C37.931 12.8592 41.5536 10.1843 43.6432 12.6774C44.8148 13.9221 44.4242 18.8695 41.9295 19.4912" fill="black"/>
<path d="M32.0175 21.4886L32.2091 20.1275L30.7538 21.5152L31.8331 26.6868L31.9544 23.7695C32.6578 24.1755 35.2714 24.2155 35.7456 22.0243L38.3142 22.343C35.7031 20.1748 32.0199 21.4946 32.0199 21.4946M32.5681 22.8375C32.5681 22.8375 32.7124 22.4182 33.4704 22.7745C33.9191 22.8533 34.4491 22.1685 34.4503 21.8049C35.258 23.0508 33.246 24.138 32.5681 22.8424" fill="black"/>
<path d="M24.0204 21.4691C24.0204 21.4691 20.3384 20.1553 17.7261 22.3236L20.2947 22.0061C20.7689 24.1985 23.3837 24.1561 24.0847 23.7525L24.206 26.6686L25.2853 21.4958L23.83 20.1081L24.0204 21.4691ZM21.5876 21.7758C21.5876 22.1394 22.1188 22.8278 22.5687 22.7454C23.3267 22.389 23.471 22.8084 23.471 22.8084C22.8003 24.1089 20.7847 23.0278 21.5876 21.7758Z" fill="black"/>
<path d="M89.2124 32.9507L96.8245 15.6598H103.383V16.7716C102.758 16.7911 102.251 16.8691 101.86 17.0057C101.489 17.1422 101.197 17.3762 100.982 17.7078C100.787 18.0199 100.65 18.4587 100.572 19.0244C100.513 19.59 100.484 20.3117 100.484 21.1894V32.6581C100.484 33.6333 100.523 34.4038 100.601 34.9694C100.679 35.535 100.826 35.9739 101.04 36.286C101.275 36.598 101.597 36.8028 102.007 36.9003C102.436 36.9979 102.992 37.0564 103.675 37.0759V38.1876H94.1895V37.0759C94.8727 37.0564 95.4192 36.9979 95.829 36.9003C96.2584 36.7833 96.5903 36.5785 96.8245 36.286C97.0587 35.9934 97.2148 35.5838 97.2929 35.0572C97.371 34.511 97.41 33.7796 97.41 32.8629V19.2877H97.1172L88.5683 38.4802H87.9242L79.5216 19.2877H79.4045V32.6581C79.4045 33.6333 79.4435 34.4038 79.5216 34.9694C79.5997 35.535 79.7461 35.9739 79.9608 36.286C80.195 36.598 80.517 36.8028 80.9269 36.9003C81.3563 36.9979 81.9126 37.0564 82.5957 37.0759V38.1876H74.4274V37.0759C75.1105 37.0564 75.657 36.9979 76.0669 36.9003C76.4963 36.7833 76.8281 36.5785 77.0623 36.286C77.2965 35.9934 77.4527 35.5838 77.5307 35.0572C77.6088 34.511 77.6479 33.7796 77.6479 32.8629V20.9846C77.6479 20.1654 77.6088 19.4925 77.5307 18.9659C77.4722 18.4197 77.3356 17.9906 77.1209 17.6786C76.9257 17.3665 76.6329 17.1519 76.2425 17.0349C75.8522 16.8984 75.3447 16.8106 74.7201 16.7716V15.6598H81.7174L89.0953 32.9507H89.2124Z" fill="black"/>
<path d="M119.305 30.025H111.488C111.156 30.8247 110.873 31.5366 110.639 32.1607C110.405 32.7654 110.209 33.292 110.053 33.7406C109.917 34.1892 109.819 34.5695 109.76 34.8816C109.702 35.1937 109.673 35.4473 109.673 35.6423C109.673 36.1884 109.848 36.5688 110.2 36.7833C110.551 36.9784 111.136 37.0759 111.956 37.0759V38.1876H104.842V37.0759C105.291 37.0174 105.671 36.9394 105.984 36.8418C106.315 36.7443 106.599 36.6078 106.833 36.4322C107.086 36.2567 107.301 36.0324 107.477 35.7593C107.672 35.4668 107.857 35.1157 108.033 34.7061L115.645 15.6598H116.904L123.55 32.1607C123.999 33.253 124.389 34.1307 124.721 34.7938C125.053 35.4375 125.375 35.9251 125.687 36.2567C126 36.5883 126.331 36.8028 126.683 36.9003C127.054 36.9979 127.493 37.0466 128 37.0466V38.1876H118.456V37.0466C119.49 37.0466 120.203 36.9491 120.593 36.7541C120.983 36.559 121.179 36.2372 121.179 35.7886C121.179 35.5935 121.169 35.418 121.149 35.262C121.13 35.0864 121.091 34.9011 121.032 34.7061C120.993 34.511 120.925 34.2965 120.827 34.0624C120.749 33.8089 120.642 33.5163 120.505 33.1847L119.305 30.025ZM112.073 28.5621H118.749L115.499 19.9313L112.073 28.5621Z" fill="black"/>
<path d="M147.981 34.9986C148.996 36.3835 150.235 37.0759 151.699 37.0759V38.1876H141.715V37.0759C142.594 37.0759 143.189 36.9979 143.501 36.8418C143.833 36.6663 143.999 36.4322 143.999 36.1397C143.999 36.0031 143.98 35.8666 143.941 35.7301C143.921 35.574 143.853 35.3887 143.736 35.1742C143.638 34.9596 143.492 34.6963 143.296 34.3843C143.101 34.0722 142.838 33.6626 142.506 33.1555L139.168 28.1818L136.65 31.3415C136.045 32.1022 135.538 32.7556 135.128 33.3017C134.718 33.8479 134.386 34.316 134.133 34.7061C133.898 35.0962 133.723 35.418 133.606 35.6716C133.508 35.9251 133.459 36.1397 133.459 36.3152C133.459 36.6078 133.625 36.8126 133.957 36.9296C134.289 37.0271 134.913 37.0759 135.831 37.0759V38.1876H127.692V37.0759C128.16 37.0759 128.58 37.0271 128.951 36.9296C129.341 36.8321 129.722 36.676 130.092 36.4615C130.463 36.2274 130.834 35.9251 131.205 35.5545C131.595 35.1644 132.015 34.6866 132.464 34.1209L138.202 26.8067L132.259 18.7026C131.771 18.0199 131.224 17.5323 130.619 17.2397C130.014 16.9276 129.292 16.7716 128.453 16.7716V15.6598H138.173V16.7716C136.904 16.7716 136.27 17.1519 136.27 17.9126C136.27 18.4002 136.543 19.0439 137.09 19.8436L140.281 24.5832L143.15 20.9553C143.697 20.2727 144.077 19.7168 144.292 19.2877C144.507 18.8586 144.614 18.449 144.614 18.0589C144.614 17.5713 144.448 17.2397 144.116 17.0642C143.804 16.8691 143.238 16.7716 142.418 16.7716V15.6598H150.469V16.7716C150.001 16.7716 149.591 16.8106 149.24 16.8886C148.908 16.9471 148.586 17.0837 148.274 17.2982C147.961 17.5128 147.62 17.8248 147.249 18.2344C146.878 18.644 146.429 19.1902 145.902 19.8728L141.247 25.8705L147.981 34.9986Z" fill="black"/>
<path d="M159.205 32.6581C159.205 33.6333 159.244 34.4038 159.322 34.9694C159.4 35.535 159.546 35.9739 159.761 36.286C159.995 36.598 160.317 36.8028 160.727 36.9003C161.156 36.9979 161.713 37.0564 162.396 37.0759V38.1876H152.91V37.0759C153.593 37.0564 154.14 36.9979 154.549 36.9003C154.979 36.7833 155.311 36.5785 155.545 36.286C155.779 35.9934 155.935 35.5838 156.013 35.0572C156.091 34.511 156.13 33.7796 156.13 32.8629V20.9846C156.13 20.1654 156.091 19.4925 156.013 18.9659C155.955 18.4197 155.818 17.9906 155.603 17.6786C155.408 17.3665 155.115 17.1519 154.725 17.0349C154.335 16.8984 153.827 16.8106 153.203 16.7716V15.6598H162.103V16.7716C161.478 16.7911 160.971 16.8691 160.581 17.0057C160.21 17.1422 159.917 17.3762 159.702 17.7078C159.507 18.0199 159.37 18.4587 159.292 19.0244C159.234 19.59 159.205 20.3117 159.205 21.1894V32.6581Z" fill="black"/>
<path d="M179.846 32.9507L187.458 15.6598H194.016V16.7716C193.392 16.7911 192.884 16.8691 192.494 17.0057C192.123 17.1422 191.83 17.3762 191.616 17.7078C191.42 18.0199 191.284 18.4587 191.206 19.0244C191.147 19.59 191.118 20.3117 191.118 21.1894V32.6581C191.118 33.6333 191.157 34.4038 191.235 34.9694C191.313 35.535 191.459 35.9739 191.674 36.286C191.908 36.598 192.23 36.8028 192.64 36.9003C193.07 36.9979 193.626 37.0564 194.309 37.0759V38.1876H184.823V37.0759C185.506 37.0564 186.053 36.9979 186.463 36.9003C186.892 36.7833 187.224 36.5785 187.458 36.286C187.692 35.9934 187.849 35.5838 187.927 35.0572C188.005 34.511 188.044 33.7796 188.044 32.8629V19.2877H187.751L179.202 38.4802H178.558L170.155 19.2877H170.038V32.6581C170.038 33.6333 170.077 34.4038 170.155 34.9694C170.233 35.535 170.38 35.9739 170.595 36.286C170.829 36.598 171.151 36.8028 171.561 36.9003C171.99 36.9979 172.546 37.0564 173.229 37.0759V38.1876H165.061V37.0759C165.744 37.0564 166.291 36.9979 166.701 36.9003C167.13 36.7833 167.462 36.5785 167.696 36.286C167.93 35.9934 168.086 35.5838 168.165 35.0572C168.243 34.511 168.282 33.7796 168.282 32.8629V20.9846C168.282 20.1654 168.243 19.4925 168.165 18.9659C168.106 18.4197 167.969 17.9906 167.755 17.6786C167.559 17.3665 167.267 17.1519 166.876 17.0349C166.486 16.8984 165.978 16.8106 165.354 16.7716V15.6598H172.351L179.729 32.9507H179.846Z" fill="black"/>
<path d="M216.79 29.118C216.79 30.6589 216.633 32.0144 216.321 33.1847C216.028 34.355 215.54 35.3302 214.857 36.1104C214.194 36.8906 213.325 37.4855 212.252 37.8951C211.178 38.2852 209.88 38.4802 208.358 38.4802C206.913 38.4802 205.654 38.3437 204.581 38.0706C203.507 37.7781 202.61 37.3099 201.887 36.6663C201.165 36.0031 200.628 35.1449 200.277 34.0917C199.926 33.0384 199.75 31.7414 199.75 30.2005V22.4767C199.75 21.0334 199.711 19.9216 199.633 19.1414C199.574 18.3612 199.379 17.7858 199.047 17.4153C198.813 17.1617 198.491 16.9959 198.081 16.9179C197.691 16.8204 197.164 16.7716 196.5 16.7716V15.6598H206.484V16.7716C205.82 16.7716 205.284 16.8106 204.874 16.8886C204.464 16.9666 204.142 17.1617 203.908 17.4738C203.634 17.8248 203.459 18.3905 203.381 19.1707C203.302 19.9313 203.263 21.0334 203.263 22.4767V30.4346C203.263 31.4293 203.361 32.3168 203.556 33.097C203.771 33.8576 204.112 34.511 204.581 35.0572C205.049 35.5838 205.654 35.9836 206.396 36.2567C207.157 36.5298 208.084 36.6663 209.177 36.6663C211.129 36.6663 212.593 36.1299 213.569 35.0572C214.545 33.9649 215.033 32.3655 215.033 30.259V23.2081C215.033 21.4722 214.965 20.1556 214.828 19.2584C214.691 18.3612 214.438 17.7273 214.067 17.3567C213.793 17.1032 213.452 16.9471 213.042 16.8886C212.632 16.8106 212.125 16.7716 211.52 16.7716V15.6598H220.01V16.7716C219.385 16.7716 218.868 16.8204 218.458 16.9179C218.068 17.0154 217.756 17.23 217.521 17.5615C217.229 17.9711 217.033 18.6148 216.936 19.4925C216.838 20.3507 216.79 21.5892 216.79 23.2081V29.118Z" fill="black"/>
<path d="M222.395 31.3123H223.478C223.615 32.19 223.869 32.9799 224.24 33.6821C224.63 34.3843 225.108 34.9791 225.674 35.4668C226.26 35.9544 226.923 36.3347 227.665 36.6078C228.426 36.8613 229.246 36.9881 230.124 36.9881C231.569 36.9881 232.711 36.6468 233.55 35.9641C234.389 35.2815 234.809 34.355 234.809 33.1847C234.809 32.6971 234.721 32.2485 234.545 31.8389C234.389 31.4293 234.116 31.0392 233.726 30.6686C233.335 30.2785 232.808 29.8982 232.145 29.5276C231.5 29.157 230.681 28.7572 229.685 28.3281C228.475 27.8015 227.46 27.2943 226.64 26.8067C225.821 26.3191 225.167 25.812 224.679 25.2854C224.191 24.7587 223.84 24.2029 223.625 23.6177C223.43 23.0131 223.332 22.3304 223.332 21.5697C223.332 20.6725 223.488 19.8436 223.801 19.0829C224.132 18.3222 224.591 17.6688 225.177 17.1227C225.762 16.5571 226.455 16.1279 227.255 15.8354C228.055 15.5233 228.934 15.3673 229.89 15.3673C230.749 15.3673 231.549 15.5038 232.291 15.7769C233.033 16.0499 233.784 16.4888 234.545 17.0934L235.306 15.7769H235.98L236.302 21.599H235.219C234.75 19.9996 234.067 18.8098 233.169 18.0296C232.291 17.2495 231.227 16.8594 229.978 16.8594C228.787 16.8594 227.841 17.1519 227.138 17.7371C226.435 18.3222 226.084 19.1122 226.084 20.1069C226.084 20.575 226.162 21.0041 226.318 21.3942C226.475 21.7648 226.728 22.1256 227.08 22.4767C227.431 22.8083 227.89 23.1496 228.456 23.5007C229.022 23.8323 229.724 24.1833 230.564 24.5539C232.008 25.1976 233.208 25.8022 234.165 26.3679C235.121 26.914 235.882 27.4699 236.448 28.0355C237.014 28.5816 237.414 29.1668 237.649 29.7909C237.883 30.3956 238 31.0782 238 31.8389C238 32.8141 237.805 33.7113 237.414 34.5305C237.024 35.3497 236.478 36.0519 235.775 36.637C235.072 37.2222 234.233 37.6805 233.257 38.0121C232.281 38.3242 231.208 38.4802 230.037 38.4802C228.924 38.4802 227.919 38.3242 227.021 38.0121C226.143 37.7 225.245 37.1734 224.328 36.4322L223.508 37.8658H222.834L222.395 31.3123Z" fill="black"/>
</svg>
